<?xml version="1.0" encoding="iso-8859-1"?>
<!-- Generator: Adobe Illustrator 19.0.0, SVG Export Plug-In . SVG Version: 6.00 Build 0)  -->
<svg version="1.1" id="Capa_1" xmlns="http://www.w3.org/2000/svg" xmlns:xlink="http://www.w3.org/1999/xlink" x="0px" y="0px"
	 viewBox="0 0 460 460" style="enable-background:new 0 0 460 460;" xml:space="preserve">
<g id="XMLID_1390_">
	<polygon id="XMLID_1391_" style="fill:#FFAA19;" points="190,250 190,280 260,280 260,180 140,180 170,250 	"/>
	<polygon id="XMLID_1392_" style="fill:#FFDA6B;" points="190,340 190,310 140,310 140,370 260,370 260,340 	"/>
	<polygon id="XMLID_1393_" style="fill:#FFCA2B;" points="330,310 330,340 260,340 260,370 380,370 380,310 	"/>
	<rect id="XMLID_1394_" x="140" y="400" style="fill:#BFBFBF;" width="120" height="60"/>
	<rect id="XMLID_1395_" x="260" y="400" style="fill:#8F8F8F;" width="120" height="60"/>
	<rect id="XMLID_1396_" x="190" y="310" style="fill:#606060;" width="140" height="30"/>
	<rect id="XMLID_1397_" x="140" y="50" style="fill:#FFAA19;" width="120" height="70"/>
	<rect id="XMLID_1398_" x="260" y="50" style="fill:#FF6A00;" width="120" height="70"/>
	<polygon id="XMLID_1399_" style="fill:#FF6A00;" points="260,280 330,280 330,250 350,250 380,180 260,180 	"/>
	<polygon id="XMLID_1400_" style="fill:#BFBFBF;" points="380,120 380,150 410,150 410,370 260,370 260,400 410,400 410,430 
		440,430 440,120 	"/>
	<path id="XMLID_1401_" style="fill:#FF6A00;" d="M110,0H20v120h90V0z M80,90H50V30h30V90z"/>
	<rect id="XMLID_1404_" x="50" y="30" style="fill:#FFCA2B;" width="30" height="60"/>
	<polygon id="XMLID_1405_" style="fill:#E8E8E8;" points="260,370 110,370 110,150 140,150 140,120 20,120 20,430 110,430 110,400 
		260,400 	"/>
	<rect id="XMLID_1406_" x="140" y="120" style="fill:#FFDA6B;" width="120" height="60"/>
	<rect id="XMLID_1407_" x="260" y="120" style="fill:#FFCA2B;" width="120" height="60"/>
	<rect id="XMLID_1408_" x="20" y="430" style="fill:#BFBFBF;" width="90" height="30"/>
	<rect id="XMLID_1409_" x="410" y="430" style="fill:#606060;" width="30" height="30"/>
</g>
<g>
</g>
<g>
</g>
<g>
</g>
<g>
</g>
<g>
</g>
<g>
</g>
<g>
</g>
<g>
</g>
<g>
</g>
<g>
</g>
<g>
</g>
<g>
</g>
<g>
</g>
<g>
</g>
<g>
</g>
</svg>
