<?xml version="1.0" ?><svg width="64px" height="64px" viewBox="0 0 64 64" data-name="Layer 1" id="Layer_1" xmlns="http://www.w3.org/2000/svg"><defs><style>.cls-1{fill:#fcdd7c;}.cls-2{fill:#838bc5;}.cls-3{fill:#fcd8d1;}.cls-4{fill:#65c8d0;}.cls-5{fill:#ba9bc9;}.cls-6{fill:#8f6c56;}</style></defs><circle class="cls-1" cx="52" cy="12" r="10"/><circle class="cls-2" cx="12" cy="12" r="10"/><circle class="cls-3" cx="12" cy="11" r="2"/><path class="cls-3" d="M10,13h4a2,2,0,0,1,2,2v2a0,0,0,0,1,0,0H8a0,0,0,0,1,0,0V15A2,2,0,0,1,10,13Z"/><path class="cls-4" d="M52.89,16.45l-1.78-.9L52.38,13H50a1,1,0,0,1-.89-1.45l2-4,1.78.9L51.62,11H54a1,1,0,0,1,.89,1.45Z"/><path class="cls-1" d="M32.89,38.45l-1.78-.9L32.38,35H30a1,1,0,0,1-.89-1.45l2-4,1.78.9L31.62,33H34a1,1,0,0,1,.89,1.45Z"/><rect class="cls-2" height="2" width="2" x="25" y="11"/><rect class="cls-2" height="2" width="2" x="29" y="11"/><rect class="cls-2" height="2" width="2" x="33" y="11"/><rect class="cls-2" height="2" width="2" x="37" y="11"/><rect class="cls-2" height="2" width="2" x="15" y="29"/><rect class="cls-2" height="2" width="2" x="15" y="33"/><rect class="cls-2" height="2" width="2" x="15" y="25"/><rect class="cls-2" height="2" width="2" x="15" y="37"/><rect class="cls-2" height="2" width="2" x="15" y="41"/><rect class="cls-2" height="2" width="2" x="47" y="29"/><rect class="cls-2" height="2" width="2" x="47" y="33"/><rect class="cls-2" height="2" width="2" x="47" y="25"/><rect class="cls-2" height="2" width="2" x="47" y="37"/><rect class="cls-2" height="2" width="2" x="47" y="41"/><rect class="cls-5" height="14" width="34" x="15" y="47"/><polyline class="cls-2" points="39 61 39 51 32 41 25 51 25 61"/><polyline class="cls-4" points="30 61 30 57 34 57 34 61"/><rect class="cls-6" height="2" width="40" x="12" y="60"/><rect class="cls-1" height="2" width="2" x="28" y="52"/><rect class="cls-1" height="2" width="2" x="31" y="48"/><rect class="cls-1" height="2" width="2" x="34" y="52"/><rect class="cls-1" height="2" width="2" x="44" y="50"/><rect class="cls-1" height="2" width="2" x="44" y="54"/><rect class="cls-1" height="2" width="2" x="18" y="50"/><rect class="cls-1" height="2" width="2" x="18" y="54"/></svg>